<?xml version="1.0" encoding="UTF-8" standalone="no"?>
<!DOCTYPE svg PUBLIC "-//W3C//DTD SVG 1.1//EN" "http://www.w3.org/Graphics/SVG/1.1/DTD/svg11.dtd">
<svg width="100%" height="100%" viewBox="0 0 1920 1080" version="1.1" xmlns="http://www.w3.org/2000/svg" xmlns:xlink="http://www.w3.org/1999/xlink" xml:space="preserve" xmlns:serif="http://www.serif.com/" style="fill-rule:evenodd;clip-rule:evenodd;stroke-linejoin:round;stroke-miterlimit:2;">
    <g transform="matrix(1,0,0,1,-46266,-19178.5)">
        <g id="Logo-Vector-YC" serif:id="Logo Vector YC" transform="matrix(1,0,0,1,44296,19178.5)">
            <rect x="1970" y="0" width="1920" height="1080" style="fill:none;"/>
            <g transform="matrix(2.24909,-0.149504,-0.19847,1.77998,556.177,-177.444)">
                <path d="M840.305,492.42C840.305,487.732 842.26,485.388 846.171,485.388L880.271,485.388C884.182,485.388 886.137,487.732 886.137,492.42L886.137,745.58C886.137,750.581 884.182,753.081 880.271,753.081L846.171,753.081C842.26,753.081 840.305,750.581 840.305,745.58L840.305,649.473C840.305,647.598 839.755,645.957 838.655,644.55C837.555,643.144 836.149,642.441 834.438,642.441L787.506,642.441C786.039,642.441 784.756,643.144 783.656,644.55C782.556,645.957 782.006,647.598 782.006,649.473L782.006,745.58C782.006,750.581 780.05,753.081 776.139,753.081L741.673,753.081C740.207,753.081 738.923,752.378 737.823,750.971C736.723,749.565 736.173,747.768 736.173,745.58L736.173,492.42C736.173,490.232 736.723,488.513 737.823,487.263C738.923,486.013 740.207,485.388 741.673,485.388L776.139,485.388C780.05,485.388 782.006,487.732 782.006,492.42L782.006,589.933C782.006,592.121 782.556,593.918 783.656,595.325C784.756,596.731 786.039,597.435 787.506,597.435L834.438,597.435C838.349,597.435 840.305,594.934 840.305,589.933L840.305,492.42Z" style="fill:rgb(44,157,255);fill-rule:nonzero;"/>
                <path d="M1051.13,744.174C1051.62,746.674 1051.32,748.784 1050.22,750.503C1049.12,752.222 1047.59,753.081 1045.63,753.081L1014.84,753.081C1012.15,753.081 1010.44,751.362 1009.7,747.924L996.135,692.604C995.402,689.479 993.569,687.916 990.635,687.916L949.936,687.916C947.003,687.916 945.17,689.479 944.436,692.604L931.237,747.924C930.503,751.362 928.67,753.081 925.737,753.081L894.937,753.081C892.982,753.081 891.454,752.222 890.354,750.503C889.254,748.784 888.948,746.674 889.437,744.174L945.536,490.545C946.514,487.107 948.347,485.388 951.036,485.388L989.902,485.388C992.591,485.388 994.424,487.107 995.402,490.545L1051.13,744.174ZM958.736,633.064C958.247,635.565 958.553,637.753 959.653,639.628C960.753,641.503 962.28,642.441 964.236,642.441L976.702,642.441C978.658,642.441 980.125,641.503 981.102,639.628C982.08,637.753 982.324,635.565 981.836,633.064L975.602,607.28C974.869,603.842 973.097,602.123 970.286,602.123C967.475,602.123 965.703,603.842 964.969,607.28L958.736,633.064Z" style="fill:rgb(44,157,255);fill-rule:nonzero;"/>
                <path d="M1121.9,747.924C1120.92,751.362 1119.09,753.081 1116.4,753.081L1077.53,753.081C1074.85,753.081 1073.01,751.362 1072.03,747.924L1015.94,494.295C1015.45,491.795 1015.75,489.685 1016.85,487.966C1017.95,486.247 1019.48,485.388 1021.44,485.388L1052.23,485.388C1055.17,485.388 1057,486.95 1057.73,490.076L1091.47,630.72C1092.2,634.158 1093.97,635.877 1096.78,635.877C1099.6,635.877 1101.37,634.158 1102.1,630.72L1136.2,490.076C1136.93,486.95 1138.64,485.388 1141.33,485.388L1172.13,485.388C1174.09,485.388 1175.62,486.247 1176.71,487.966C1177.82,489.685 1178.12,491.795 1177.63,494.295L1121.9,747.924Z" style="fill:rgb(44,157,255);fill-rule:nonzero;"/>
                <path d="M1163.7,619C1163.7,599.31 1165.41,581.026 1168.83,564.149C1172.25,547.271 1177.33,532.738 1184.05,520.549C1190.77,508.36 1199.2,498.827 1209.35,491.951C1219.49,485.075 1231.41,481.637 1245.1,481.637C1258.54,481.637 1270.4,485.075 1280.66,491.951C1290.93,498.827 1299.42,508.36 1306.15,520.549C1312.87,532.738 1317.94,547.271 1321.36,564.149C1324.79,581.026 1326.5,599.31 1326.5,619C1326.5,639.003 1324.79,657.365 1321.36,674.086C1317.94,690.807 1312.87,705.262 1306.15,717.451C1299.42,729.64 1290.93,739.173 1280.66,746.049C1270.4,752.925 1258.54,756.363 1245.1,756.363C1231.41,756.363 1219.49,752.925 1209.35,746.049C1199.2,739.173 1190.77,729.64 1184.05,717.451C1177.33,705.262 1172.25,690.807 1168.83,674.086C1165.41,657.365 1163.7,639.003 1163.7,619ZM1212.46,619C1212.46,632.752 1212.89,645.254 1213.75,656.505C1214.6,667.757 1216.25,677.446 1218.7,685.572C1221.14,693.698 1224.5,700.027 1228.78,704.559C1233.06,709.091 1238.5,711.357 1245.1,711.357C1251.7,711.357 1257.14,709.091 1261.41,704.559C1265.69,700.027 1269.05,693.698 1271.5,685.572C1273.94,677.446 1275.65,667.757 1276.63,656.505C1277.61,645.254 1278.1,632.752 1278.1,619C1278.1,605.561 1277.61,593.215 1276.63,581.964C1275.65,570.712 1273.94,561.023 1271.5,552.897C1269.05,544.771 1265.69,538.442 1261.41,533.91C1257.14,529.378 1251.7,527.112 1245.1,527.112C1238.5,527.112 1233.06,529.378 1228.78,533.91C1224.5,538.442 1221.14,544.771 1218.7,552.897C1216.25,561.023 1214.6,570.712 1213.75,581.964C1212.89,593.215 1212.46,605.561 1212.46,619Z" style="fill:rgb(44,157,255);fill-rule:nonzero;"/>
                <g transform="matrix(0.73056,0.0613611,0.0814582,0.923099,-16740.4,-6048.26)">
                    <path d="M24322.8,5648.5C24324.1,5648.86 24325.3,5649.76 24326,5650.98C24326.6,5652.21 24326.8,5653.65 24326.4,5654.99C24325.2,5658.58 24324.1,5662.11 24322.8,5665.59C24316,5684.15 24307.3,5700.4 24296.5,5714.32C24285.8,5728.23 24272.9,5739.42 24257.9,5747.86C24242.9,5756.31 24226.2,5761.15 24207.6,5762.38C24188.7,5763.63 24172.7,5760.97 24159.6,5754.4C24146.4,5747.82 24135.9,5738.19 24128.2,5725.51C24120.4,5712.82 24115.1,5697.51 24112.5,5679.57C24109.8,5661.64 24109.6,5641.75 24112.1,5619.92C24114.5,5598.43 24119.1,5578.32 24125.8,5559.59C24132.6,5540.86 24141.4,5524.53 24152.1,5510.61C24162.9,5496.69 24175.7,5485.51 24190.5,5477.08C24205.3,5468.64 24222.2,5463.8 24241,5462.54C24259.6,5461.31 24275.5,5463.98 24288.8,5470.54C24302.2,5477.1 24312.7,5486.73 24320.5,5499.42C24328.3,5512.1 24333.5,5527.5 24336.2,5545.61C24336.8,5550.05 24337.3,5554.59 24337.7,5559.24C24337.9,5561.55 24336.5,5563.69 24334.3,5564.47C24323.7,5568.24 24293.1,5579.18 24279,5584.2C24277.4,5584.78 24275.6,5584.52 24274.2,5583.51C24272.9,5582.5 24272.1,5580.88 24272.1,5579.17C24272.3,5575.74 24272.3,5572.4 24272.3,5569.15C24272.3,5556.96 24271.2,5546.54 24268.8,5537.9C24266.4,5529.25 24262.5,5522.65 24257.2,5518.1C24251.8,5513.55 24244.6,5511.57 24235.5,5512.18C24226.4,5512.78 24218.6,5515.75 24212.2,5521.09C24205.7,5526.43 24200.3,5533.64 24196,5542.74C24191.6,5551.83 24188.2,5562.56 24185.6,5574.91C24183.1,5587.27 24181,5600.78 24179.3,5615.45C24177.7,5630.46 24176.7,5644.07 24176.5,5656.27C24176.3,5668.47 24177.4,5678.89 24179.8,5687.54C24182.2,5696.18 24186.1,5702.78 24191.4,5707.34C24196.8,5711.89 24204,5713.86 24213.1,5713.26C24222.2,5712.65 24230,5709.68 24236.4,5704.35C24242.9,5699.01 24248.3,5691.79 24252.6,5682.7C24257,5673.61 24260.5,5662.87 24263.2,5650.5C24264.1,5646.76 24264.8,5642.89 24265.6,5638.9C24265.8,5637.48 24266.7,5636.23 24267.9,5635.47C24269.1,5634.69 24270.6,5634.47 24272,5634.84C24283.7,5638 24311.3,5645.42 24322.8,5648.5Z" style="fill:rgb(44,157,255);fill-rule:nonzero;"/>
                </g>
            </g>
            <g transform="matrix(1.57267,-0.10454,-0.123334,1.25074,1321.6,-372.09)">
                <g transform="matrix(1.01244,-9.48861e-19,-7.52507e-17,1.11151,-10.5961,-90.1343)">
                    <path d="M621.586,554.837C621.586,563.392 624.109,570.219 629.156,575.32C634.203,580.42 640.48,584.944 647.986,588.893C655.492,592.841 663.58,596.79 672.251,600.738C680.922,604.687 689.01,609.787 696.516,616.039C704.022,622.29 710.299,630.187 715.346,639.73C720.393,649.272 722.917,661.446 722.917,676.253C722.658,691.06 720.393,703.975 716.123,714.998C711.852,726.021 706.222,735.152 699.234,742.391C692.246,749.63 684.287,754.977 675.357,758.432C666.428,761.887 657.174,763.614 647.598,763.614C628.962,763.614 613.044,757.527 599.844,745.352C586.644,733.178 577.326,716.726 571.891,695.996C570.596,691.389 571.761,688.263 575.385,686.618L599.067,674.773C600.62,674.115 602.173,674.279 603.726,675.266C605.279,676.253 606.315,677.57 606.832,679.215C609.679,690.731 613.821,699.698 619.256,706.114C624.691,712.53 632.327,715.903 642.162,716.232C647.598,716.232 652.321,715.245 656.333,713.271C660.345,711.296 663.71,708.664 666.428,705.374C669.145,702.083 671.151,698.546 672.445,694.762C673.739,690.978 674.386,687.112 674.386,683.163C674.386,674.608 671.863,667.863 666.816,662.927C661.769,657.992 655.492,653.549 647.986,649.601C640.48,645.652 632.392,641.704 623.721,637.755C615.05,633.807 606.962,628.789 599.456,622.702C591.95,616.614 585.673,608.8 580.626,599.257C575.579,589.715 573.055,577.376 573.055,562.24C573.314,547.433 575.579,534.518 579.85,523.495C584.12,512.472 589.685,503.342 596.544,496.103C603.403,488.864 611.297,483.434 620.227,479.815C629.156,476.196 638.409,474.386 647.986,474.386C666.622,474.386 682.604,480.391 695.934,492.401C709.264,504.411 718.646,520.781 724.081,541.51C724.599,543.485 724.47,545.377 723.693,547.186C722.917,548.996 721.881,550.23 720.587,550.888L696.905,562.734C695.352,563.392 693.799,563.31 692.246,562.487C690.693,561.664 689.657,560.266 689.14,558.292C686.034,546.775 681.763,537.891 676.328,531.639C670.892,525.387 663.257,522.262 653.421,522.262C647.986,522.262 643.327,523.249 639.445,525.223C635.562,527.197 632.262,529.747 629.545,532.873C626.827,535.999 624.821,539.536 623.527,543.485C622.233,547.433 621.586,551.217 621.586,554.837Z" style="fill:rgb(44,157,255);fill-rule:nonzero;"/>
                </g>
                <path d="M872.39,478.334C876.531,478.334 878.602,480.802 878.602,485.738L878.602,517.819C878.602,523.084 876.531,525.716 872.39,525.716L840.166,525.716C838.613,525.716 837.254,526.375 836.089,527.691C834.925,529.007 834.342,530.817 834.342,533.12L834.342,752.262C834.342,754.566 833.695,756.457 832.401,757.938C831.107,759.419 829.683,760.159 828.13,760.159L791.636,760.159C790.083,760.159 788.724,759.419 787.559,757.938C786.394,756.457 785.812,754.566 785.812,752.262L785.812,533.12C785.812,530.817 785.165,529.007 783.871,527.691C782.577,526.375 781.153,525.716 779.6,525.716L747.376,525.716C743.235,525.716 741.164,523.084 741.164,517.819L741.164,485.738C741.164,480.802 743.235,478.334 747.376,478.334L872.39,478.334Z" style="fill:rgb(44,157,255);fill-rule:nonzero;"/>
                <path d="M1026.13,644.172C1032.35,653.385 1037.13,663.75 1040.5,675.266C1043.86,686.783 1045.55,700.109 1045.55,715.245L1045.55,752.262C1045.55,757.527 1043.61,760.159 1039.72,760.159L1003.23,760.159C999.086,760.159 997.016,757.527 997.016,752.262L997.016,722.648C997.016,712.119 996.886,703.153 996.627,695.749C996.369,688.346 995.463,682.258 993.91,677.487C992.357,672.716 989.963,669.179 986.727,666.876C983.492,664.572 978.768,663.421 972.556,663.421L959.744,663.421C958.191,663.421 956.833,664.079 955.668,665.395C954.503,666.711 953.921,668.521 953.921,670.824L953.921,752.262C953.921,754.566 953.338,756.457 952.174,757.938C951.009,759.419 949.65,760.159 948.097,760.159L911.214,760.159C909.661,760.159 908.302,759.419 907.138,757.938C905.973,756.457 905.391,754.566 905.391,752.262L905.391,485.738C905.391,483.434 905.973,481.625 907.138,480.309C908.302,478.992 909.661,478.334 911.214,478.334L964.015,478.334C975.921,478.334 986.857,480.473 996.822,484.751C1006.79,489.028 1015.39,495.198 1022.64,503.259C1029.89,511.321 1035.52,521.028 1039.53,532.38C1043.54,543.732 1045.55,556.482 1045.55,570.631C1045.55,583.792 1043.86,595.638 1040.5,606.167C1037.13,616.697 1032.47,625.91 1026.52,633.807C1025.23,635.452 1024.52,637.18 1024.39,638.989C1024.26,640.799 1024.84,642.527 1026.13,644.172ZM969.451,615.545C980.321,615.545 988.539,612.008 994.104,604.933C999.669,597.859 1002.45,586.425 1002.45,570.631C1002.45,540.688 991.451,525.716 969.451,525.716L959.744,525.716C958.191,525.716 956.833,526.375 955.668,527.691C954.503,529.007 953.921,530.817 953.921,533.12L953.921,607.648C953.921,609.951 954.503,611.843 955.668,613.324C956.833,614.805 958.191,615.545 959.744,615.545L969.451,615.545Z" style="fill:rgb(44,157,255);fill-rule:nonzero;"/>
                <path d="M1209.38,518.807C1209.38,520.781 1208.8,522.426 1207.64,523.742C1206.47,525.058 1205.24,525.716 1203.95,525.716L1134.45,525.716C1130.83,525.716 1129.02,528.02 1129.02,532.626L1129.02,589.386C1129.02,591.031 1129.54,592.594 1130.57,594.075C1131.61,595.556 1132.9,596.296 1134.45,596.296L1203.95,596.296C1205.24,596.296 1206.47,596.954 1207.64,598.27C1208.8,599.586 1209.38,601.232 1209.38,603.206L1209.38,636.768C1209.38,638.743 1208.8,640.388 1207.64,641.704C1206.47,643.02 1205.24,643.678 1203.95,643.678L1134.45,643.678C1132.9,643.678 1131.61,644.419 1130.57,645.899C1129.54,647.38 1129.02,649.107 1129.02,651.082L1129.02,705.374C1129.02,707.348 1129.54,709.075 1130.57,710.556C1131.61,712.037 1132.9,712.777 1134.45,712.777L1203.95,712.777C1205.24,712.777 1206.47,713.435 1207.64,714.751C1208.8,716.068 1209.38,717.713 1209.38,719.687L1209.38,753.249C1209.38,755.224 1208.8,756.869 1207.64,758.185C1206.47,759.501 1205.24,760.159 1203.95,760.159L1085.92,760.159C1082.3,760.159 1080.49,757.856 1080.49,753.249L1080.49,485.244C1080.49,480.638 1082.3,478.334 1085.92,478.334L1203.95,478.334C1205.24,478.334 1206.47,478.992 1207.64,480.309C1208.8,481.625 1209.38,483.27 1209.38,485.244L1209.38,518.807Z" style="fill:rgb(44,157,255);fill-rule:nonzero;"/>
                <path d="M1400.79,750.782C1401.31,753.414 1400.98,755.635 1399.82,757.445C1398.65,759.254 1397.04,760.159 1394.96,760.159L1362.35,760.159C1359.5,760.159 1357.69,758.349 1356.92,754.73L1342.55,696.49C1341.78,693.199 1339.83,691.554 1336.73,691.554L1293.63,691.554C1290.53,691.554 1288.59,693.199 1287.81,696.49L1273.83,754.73C1273.06,758.349 1271.12,760.159 1268.01,760.159L1235.4,760.159C1233.33,760.159 1231.71,759.254 1230.54,757.445C1229.38,755.635 1229.06,753.414 1229.57,750.782L1288.97,483.764C1290.01,480.144 1291.95,478.334 1294.8,478.334L1335.95,478.334C1338.8,478.334 1340.74,480.144 1341.78,483.764L1400.79,750.782ZM1302.95,633.807C1302.43,636.439 1302.76,638.743 1303.92,640.717C1305.09,642.691 1306.7,643.678 1308.77,643.678L1321.97,643.678C1324.05,643.678 1325.6,642.691 1326.63,640.717C1327.67,638.743 1327.93,636.439 1327.41,633.807L1320.81,606.661C1320.03,603.041 1318.16,601.232 1315.18,601.232C1312.2,601.232 1310.33,603.041 1309.55,606.661L1302.95,633.807Z" style="fill:rgb(44,157,255);fill-rule:nonzero;"/>
                <path d="M1640.96,751.594C1641.22,753.897 1640.77,755.872 1639.6,757.517C1638.44,759.162 1636.95,759.985 1635.14,759.985L1604.08,759.985C1602.53,759.985 1601.17,759.327 1600,758.01C1598.84,756.694 1598.26,755.049 1598.26,753.075L1592.58,654.537C1592.32,650.588 1590.64,648.367 1587.53,647.873C1584.43,647.38 1582.23,649.107 1580.93,653.056L1552.59,754.73C1552.07,756.375 1551.3,757.691 1550.26,758.679C1549.23,759.666 1548.06,760.159 1546.77,760.159L1515.71,760.159C1513.12,760.159 1511.18,758.349 1509.88,754.73L1481.54,653.056C1480.25,649.107 1478.05,647.38 1474.94,647.873C1471.84,648.367 1470.15,650.588 1469.89,654.537L1462.52,753.249C1462,757.856 1460.06,760.159 1456.69,760.159L1425.63,760.159C1423.56,760.159 1421.95,759.337 1420.78,757.691C1419.62,756.046 1419.16,754.072 1419.42,751.769L1434.18,485.244C1434.18,482.941 1434.76,481.213 1435.92,480.062C1437.09,478.91 1438.45,478.334 1440,478.334L1478.44,478.334C1481.54,478.334 1483.48,479.98 1484.26,483.27L1525.41,654.537C1526.45,658.156 1528.39,659.966 1531.24,659.966C1534.08,659.966 1536.03,658.156 1537.06,654.537L1578.21,483.27C1578.99,479.98 1580.8,478.334 1583.65,478.334L1622.47,478.334C1624.03,478.334 1625.39,478.91 1626.55,480.062C1627.72,481.213 1628.3,482.941 1628.3,485.244L1640.96,751.594Z" style="fill:rgb(44,157,255);fill-rule:nonzero;"/>
            </g>
            <g transform="matrix(2.24909,-0.149504,-0.19847,1.77998,521.359,-200.479)">
                <path d="M840.305,492.42C840.305,487.732 842.26,485.388 846.171,485.388L880.271,485.388C884.182,485.388 886.137,487.732 886.137,492.42L886.137,745.58C886.137,750.581 884.182,753.081 880.271,753.081L846.171,753.081C842.26,753.081 840.305,750.581 840.305,745.58L840.305,649.473C840.305,647.598 839.755,645.957 838.655,644.55C837.555,643.144 836.149,642.441 834.438,642.441L787.506,642.441C786.039,642.441 784.756,643.144 783.656,644.55C782.556,645.957 782.006,647.598 782.006,649.473L782.006,745.58C782.006,750.581 780.05,753.081 776.139,753.081L741.673,753.081C740.207,753.081 738.923,752.378 737.823,750.971C736.723,749.565 736.173,747.768 736.173,745.58L736.173,492.42C736.173,490.232 736.723,488.513 737.823,487.263C738.923,486.013 740.207,485.388 741.673,485.388L776.139,485.388C780.05,485.388 782.006,487.732 782.006,492.42L782.006,589.933C782.006,592.121 782.556,593.918 783.656,595.325C784.756,596.731 786.039,597.435 787.506,597.435L834.438,597.435C838.349,597.435 840.305,594.934 840.305,589.933L840.305,492.42Z" style="fill:rgb(247,202,35);fill-rule:nonzero;"/>
                <path d="M1051.13,744.174C1051.62,746.674 1051.32,748.784 1050.22,750.503C1049.12,752.222 1047.59,753.081 1045.63,753.081L1014.84,753.081C1012.15,753.081 1010.44,751.362 1009.7,747.924L996.135,692.604C995.402,689.479 993.569,687.916 990.635,687.916L949.936,687.916C947.003,687.916 945.17,689.479 944.436,692.604L931.237,747.924C930.503,751.362 928.67,753.081 925.737,753.081L894.937,753.081C892.982,753.081 891.454,752.222 890.354,750.503C889.254,748.784 888.948,746.674 889.437,744.174L945.536,490.545C946.514,487.107 948.347,485.388 951.036,485.388L989.902,485.388C992.591,485.388 994.424,487.107 995.402,490.545L1051.13,744.174ZM958.736,633.064C958.247,635.565 958.553,637.753 959.653,639.628C960.753,641.503 962.28,642.441 964.236,642.441L976.702,642.441C978.658,642.441 980.125,641.503 981.102,639.628C982.08,637.753 982.324,635.565 981.836,633.064L975.602,607.28C974.869,603.842 973.097,602.123 970.286,602.123C967.475,602.123 965.703,603.842 964.969,607.28L958.736,633.064Z" style="fill:rgb(247,202,35);fill-rule:nonzero;"/>
                <path d="M1121.9,747.924C1120.92,751.362 1119.09,753.081 1116.4,753.081L1077.53,753.081C1074.85,753.081 1073.01,751.362 1072.03,747.924L1015.94,494.295C1015.45,491.795 1015.75,489.685 1016.85,487.966C1017.95,486.247 1019.48,485.388 1021.44,485.388L1052.23,485.388C1055.17,485.388 1057,486.95 1057.73,490.076L1091.47,630.72C1092.2,634.158 1093.97,635.877 1096.78,635.877C1099.6,635.877 1101.37,634.158 1102.1,630.72L1136.2,490.076C1136.93,486.95 1138.64,485.388 1141.33,485.388L1172.13,485.388C1174.09,485.388 1175.62,486.247 1176.71,487.966C1177.82,489.685 1178.12,491.795 1177.63,494.295L1121.9,747.924Z" style="fill:rgb(247,202,35);fill-rule:nonzero;"/>
                <path d="M1163.7,619C1163.7,599.31 1165.41,581.026 1168.83,564.149C1172.25,547.271 1177.33,532.738 1184.05,520.549C1190.77,508.36 1199.2,498.827 1209.35,491.951C1219.49,485.075 1231.41,481.637 1245.1,481.637C1258.54,481.637 1270.4,485.075 1280.66,491.951C1290.93,498.827 1299.42,508.36 1306.15,520.549C1312.87,532.738 1317.94,547.271 1321.36,564.149C1324.79,581.026 1326.5,599.31 1326.5,619C1326.5,639.003 1324.79,657.365 1321.36,674.086C1317.94,690.807 1312.87,705.262 1306.15,717.451C1299.42,729.64 1290.93,739.173 1280.66,746.049C1270.4,752.925 1258.54,756.363 1245.1,756.363C1231.41,756.363 1219.49,752.925 1209.35,746.049C1199.2,739.173 1190.77,729.64 1184.05,717.451C1177.33,705.262 1172.25,690.807 1168.83,674.086C1165.41,657.365 1163.7,639.003 1163.7,619ZM1212.46,619C1212.46,632.752 1212.89,645.254 1213.75,656.505C1214.6,667.757 1216.25,677.446 1218.7,685.572C1221.14,693.698 1224.5,700.027 1228.78,704.559C1233.06,709.091 1238.5,711.357 1245.1,711.357C1251.7,711.357 1257.14,709.091 1261.41,704.559C1265.69,700.027 1269.05,693.698 1271.5,685.572C1273.94,677.446 1275.65,667.757 1276.63,656.505C1277.61,645.254 1278.1,632.752 1278.1,619C1278.1,605.561 1277.61,593.215 1276.63,581.964C1275.65,570.712 1273.94,561.023 1271.5,552.897C1269.05,544.771 1265.69,538.442 1261.41,533.91C1257.14,529.378 1251.7,527.112 1245.1,527.112C1238.5,527.112 1233.06,529.378 1228.78,533.91C1224.5,538.442 1221.14,544.771 1218.7,552.897C1216.25,561.023 1214.6,570.712 1213.75,581.964C1212.89,593.215 1212.46,605.561 1212.46,619Z" style="fill:rgb(247,202,35);fill-rule:nonzero;"/>
                <g transform="matrix(0.73056,0.0613611,0.0814582,0.923099,-16740.4,-6048.26)">
                    <path d="M24322.8,5648.5C24324.1,5648.86 24325.3,5649.76 24326,5650.98C24326.6,5652.21 24326.8,5653.65 24326.4,5654.99C24325.2,5658.58 24324.1,5662.11 24322.8,5665.59C24316,5684.15 24307.3,5700.4 24296.5,5714.32C24285.8,5728.23 24272.9,5739.42 24257.9,5747.86C24242.9,5756.31 24226.2,5761.15 24207.6,5762.38C24188.7,5763.63 24172.7,5760.97 24159.6,5754.4C24146.4,5747.82 24135.9,5738.19 24128.2,5725.51C24120.4,5712.82 24115.1,5697.51 24112.5,5679.57C24109.8,5661.64 24109.6,5641.75 24112.1,5619.92C24114.5,5598.43 24119.1,5578.32 24125.8,5559.59C24132.6,5540.86 24141.4,5524.53 24152.1,5510.61C24162.9,5496.69 24175.7,5485.51 24190.5,5477.08C24205.3,5468.64 24222.2,5463.8 24241,5462.54C24259.6,5461.31 24275.5,5463.98 24288.8,5470.54C24302.2,5477.1 24312.7,5486.73 24320.5,5499.42C24328.3,5512.1 24333.5,5527.5 24336.2,5545.61C24336.8,5550.05 24337.3,5554.59 24337.7,5559.24C24337.9,5561.55 24336.5,5563.69 24334.3,5564.47C24323.7,5568.24 24293.1,5579.18 24279,5584.2C24277.4,5584.78 24275.6,5584.52 24274.2,5583.51C24272.9,5582.5 24272.1,5580.88 24272.1,5579.17C24272.3,5575.74 24272.3,5572.4 24272.3,5569.15C24272.3,5556.96 24271.2,5546.54 24268.8,5537.9C24266.4,5529.25 24262.5,5522.65 24257.2,5518.1C24251.8,5513.55 24244.6,5511.57 24235.5,5512.18C24226.4,5512.78 24218.6,5515.75 24212.2,5521.09C24205.7,5526.43 24200.3,5533.64 24196,5542.74C24191.6,5551.83 24188.2,5562.56 24185.6,5574.91C24183.1,5587.27 24181,5600.78 24179.3,5615.45C24177.7,5630.46 24176.7,5644.07 24176.5,5656.27C24176.3,5668.47 24177.4,5678.89 24179.8,5687.54C24182.2,5696.18 24186.1,5702.78 24191.4,5707.34C24196.8,5711.89 24204,5713.86 24213.1,5713.26C24222.2,5712.65 24230,5709.68 24236.4,5704.35C24242.9,5699.01 24248.3,5691.79 24252.6,5682.7C24257,5673.61 24260.5,5662.87 24263.2,5650.5C24264.1,5646.76 24264.8,5642.89 24265.6,5638.9C24265.8,5637.48 24266.7,5636.23 24267.9,5635.47C24269.1,5634.69 24270.6,5634.47 24272,5634.84C24283.7,5638 24311.3,5645.42 24322.8,5648.5Z" style="fill:rgb(247,202,35);fill-rule:nonzero;"/>
                </g>
            </g>
            <g transform="matrix(1.57267,-0.10454,-0.123334,1.25074,1286.78,-395.125)">
                <g transform="matrix(1.01244,-9.48861e-19,-7.52507e-17,1.11151,-10.5961,-90.1343)">
                    <path d="M621.586,554.837C621.586,563.392 624.109,570.219 629.156,575.32C634.203,580.42 640.48,584.944 647.986,588.893C655.492,592.841 663.58,596.79 672.251,600.738C680.922,604.687 689.01,609.787 696.516,616.039C704.022,622.29 710.299,630.187 715.346,639.73C720.393,649.272 722.917,661.446 722.917,676.253C722.658,691.06 720.393,703.975 716.123,714.998C711.852,726.021 706.222,735.152 699.234,742.391C692.246,749.63 684.287,754.977 675.357,758.432C666.428,761.887 657.174,763.614 647.598,763.614C628.962,763.614 613.044,757.527 599.844,745.352C586.644,733.178 577.326,716.726 571.891,695.996C570.596,691.389 571.761,688.263 575.385,686.618L599.067,674.773C600.62,674.115 602.173,674.279 603.726,675.266C605.279,676.253 606.315,677.57 606.832,679.215C609.679,690.731 613.821,699.698 619.256,706.114C624.691,712.53 632.327,715.903 642.162,716.232C647.598,716.232 652.321,715.245 656.333,713.271C660.345,711.296 663.71,708.664 666.428,705.374C669.145,702.083 671.151,698.546 672.445,694.762C673.739,690.978 674.386,687.112 674.386,683.163C674.386,674.608 671.863,667.863 666.816,662.927C661.769,657.992 655.492,653.549 647.986,649.601C640.48,645.652 632.392,641.704 623.721,637.755C615.05,633.807 606.962,628.789 599.456,622.702C591.95,616.614 585.673,608.8 580.626,599.257C575.579,589.715 573.055,577.376 573.055,562.24C573.314,547.433 575.579,534.518 579.85,523.495C584.12,512.472 589.685,503.342 596.544,496.103C603.403,488.864 611.297,483.434 620.227,479.815C629.156,476.196 638.409,474.386 647.986,474.386C666.622,474.386 682.604,480.391 695.934,492.401C709.264,504.411 718.646,520.781 724.081,541.51C724.599,543.485 724.47,545.377 723.693,547.186C722.917,548.996 721.881,550.23 720.587,550.888L696.905,562.734C695.352,563.392 693.799,563.31 692.246,562.487C690.693,561.664 689.657,560.266 689.14,558.292C686.034,546.775 681.763,537.891 676.328,531.639C670.892,525.387 663.257,522.262 653.421,522.262C647.986,522.262 643.327,523.249 639.445,525.223C635.562,527.197 632.262,529.747 629.545,532.873C626.827,535.999 624.821,539.536 623.527,543.485C622.233,547.433 621.586,551.217 621.586,554.837Z" style="fill:rgb(247,202,35);fill-rule:nonzero;"/>
                </g>
                <path d="M872.39,478.334C876.531,478.334 878.602,480.802 878.602,485.738L878.602,517.819C878.602,523.084 876.531,525.716 872.39,525.716L840.166,525.716C838.613,525.716 837.254,526.375 836.089,527.691C834.925,529.007 834.342,530.817 834.342,533.12L834.342,752.262C834.342,754.566 833.695,756.457 832.401,757.938C831.107,759.419 829.683,760.159 828.13,760.159L791.636,760.159C790.083,760.159 788.724,759.419 787.559,757.938C786.394,756.457 785.812,754.566 785.812,752.262L785.812,533.12C785.812,530.817 785.165,529.007 783.871,527.691C782.577,526.375 781.153,525.716 779.6,525.716L747.376,525.716C743.235,525.716 741.164,523.084 741.164,517.819L741.164,485.738C741.164,480.802 743.235,478.334 747.376,478.334L872.39,478.334Z" style="fill:rgb(247,202,35);fill-rule:nonzero;"/>
                <path d="M1026.13,644.172C1032.35,653.385 1037.13,663.75 1040.5,675.266C1043.86,686.783 1045.55,700.109 1045.55,715.245L1045.55,752.262C1045.55,757.527 1043.61,760.159 1039.72,760.159L1003.23,760.159C999.086,760.159 997.016,757.527 997.016,752.262L997.016,722.648C997.016,712.119 996.886,703.153 996.627,695.749C996.369,688.346 995.463,682.258 993.91,677.487C992.357,672.716 989.963,669.179 986.727,666.876C983.492,664.572 978.768,663.421 972.556,663.421L959.744,663.421C958.191,663.421 956.833,664.079 955.668,665.395C954.503,666.711 953.921,668.521 953.921,670.824L953.921,752.262C953.921,754.566 953.338,756.457 952.174,757.938C951.009,759.419 949.65,760.159 948.097,760.159L911.214,760.159C909.661,760.159 908.302,759.419 907.138,757.938C905.973,756.457 905.391,754.566 905.391,752.262L905.391,485.738C905.391,483.434 905.973,481.625 907.138,480.309C908.302,478.992 909.661,478.334 911.214,478.334L964.015,478.334C975.921,478.334 986.857,480.473 996.822,484.751C1006.79,489.028 1015.39,495.198 1022.64,503.259C1029.89,511.321 1035.52,521.028 1039.53,532.38C1043.54,543.732 1045.55,556.482 1045.55,570.631C1045.55,583.792 1043.86,595.638 1040.5,606.167C1037.13,616.697 1032.47,625.91 1026.52,633.807C1025.23,635.452 1024.52,637.18 1024.39,638.989C1024.26,640.799 1024.84,642.527 1026.13,644.172ZM969.451,615.545C980.321,615.545 988.539,612.008 994.104,604.933C999.669,597.859 1002.45,586.425 1002.45,570.631C1002.45,540.688 991.451,525.716 969.451,525.716L959.744,525.716C958.191,525.716 956.833,526.375 955.668,527.691C954.503,529.007 953.921,530.817 953.921,533.12L953.921,607.648C953.921,609.951 954.503,611.843 955.668,613.324C956.833,614.805 958.191,615.545 959.744,615.545L969.451,615.545Z" style="fill:rgb(247,202,35);fill-rule:nonzero;"/>
                <path d="M1209.38,518.807C1209.38,520.781 1208.8,522.426 1207.64,523.742C1206.47,525.058 1205.24,525.716 1203.95,525.716L1134.45,525.716C1130.83,525.716 1129.02,528.02 1129.02,532.626L1129.02,589.386C1129.02,591.031 1129.54,592.594 1130.57,594.075C1131.61,595.556 1132.9,596.296 1134.45,596.296L1203.95,596.296C1205.24,596.296 1206.47,596.954 1207.64,598.27C1208.8,599.586 1209.38,601.232 1209.38,603.206L1209.38,636.768C1209.38,638.743 1208.8,640.388 1207.64,641.704C1206.47,643.02 1205.24,643.678 1203.95,643.678L1134.45,643.678C1132.9,643.678 1131.61,644.419 1130.57,645.899C1129.54,647.38 1129.02,649.107 1129.02,651.082L1129.02,705.374C1129.02,707.348 1129.54,709.075 1130.57,710.556C1131.61,712.037 1132.9,712.777 1134.45,712.777L1203.95,712.777C1205.24,712.777 1206.47,713.435 1207.64,714.751C1208.8,716.068 1209.38,717.713 1209.38,719.687L1209.38,753.249C1209.38,755.224 1208.8,756.869 1207.64,758.185C1206.47,759.501 1205.24,760.159 1203.95,760.159L1085.92,760.159C1082.3,760.159 1080.49,757.856 1080.49,753.249L1080.49,485.244C1080.49,480.638 1082.3,478.334 1085.92,478.334L1203.95,478.334C1205.24,478.334 1206.47,478.992 1207.64,480.309C1208.8,481.625 1209.38,483.27 1209.38,485.244L1209.38,518.807Z" style="fill:rgb(247,202,35);fill-rule:nonzero;"/>
                <path d="M1400.79,750.782C1401.31,753.414 1400.98,755.635 1399.82,757.445C1398.65,759.254 1397.04,760.159 1394.96,760.159L1362.35,760.159C1359.5,760.159 1357.69,758.349 1356.92,754.73L1342.55,696.49C1341.78,693.199 1339.83,691.554 1336.73,691.554L1293.63,691.554C1290.53,691.554 1288.59,693.199 1287.81,696.49L1273.83,754.73C1273.06,758.349 1271.12,760.159 1268.01,760.159L1235.4,760.159C1233.33,760.159 1231.71,759.254 1230.54,757.445C1229.38,755.635 1229.06,753.414 1229.57,750.782L1288.97,483.764C1290.01,480.144 1291.95,478.334 1294.8,478.334L1335.95,478.334C1338.8,478.334 1340.74,480.144 1341.78,483.764L1400.79,750.782ZM1302.95,633.807C1302.43,636.439 1302.76,638.743 1303.92,640.717C1305.09,642.691 1306.7,643.678 1308.77,643.678L1321.97,643.678C1324.05,643.678 1325.6,642.691 1326.63,640.717C1327.67,638.743 1327.93,636.439 1327.41,633.807L1320.81,606.661C1320.03,603.041 1318.16,601.232 1315.18,601.232C1312.2,601.232 1310.33,603.041 1309.55,606.661L1302.95,633.807Z" style="fill:rgb(247,202,35);fill-rule:nonzero;"/>
                <path d="M1640.96,751.594C1641.22,753.897 1640.77,755.872 1639.6,757.517C1638.44,759.162 1636.95,759.985 1635.14,759.985L1604.08,759.985C1602.53,759.985 1601.17,759.327 1600,758.01C1598.84,756.694 1598.26,755.049 1598.26,753.075L1592.58,654.537C1592.32,650.588 1590.64,648.367 1587.53,647.873C1584.43,647.38 1582.23,649.107 1580.93,653.056L1552.59,754.73C1552.07,756.375 1551.3,757.691 1550.26,758.679C1549.23,759.666 1548.06,760.159 1546.77,760.159L1515.71,760.159C1513.12,760.159 1511.18,758.349 1509.88,754.73L1481.54,653.056C1480.25,649.107 1478.05,647.38 1474.94,647.873C1471.84,648.367 1470.15,650.588 1469.89,654.537L1462.52,753.249C1462,757.856 1460.06,760.159 1456.69,760.159L1425.63,760.159C1423.56,760.159 1421.95,759.337 1420.78,757.691C1419.62,756.046 1419.16,754.072 1419.42,751.769L1434.18,485.244C1434.18,482.941 1434.76,481.213 1435.92,480.062C1437.09,478.91 1438.45,478.334 1440,478.334L1478.44,478.334C1481.54,478.334 1483.48,479.98 1484.26,483.27L1525.41,654.537C1526.45,658.156 1528.39,659.966 1531.24,659.966C1534.08,659.966 1536.03,658.156 1537.06,654.537L1578.21,483.27C1578.99,479.98 1580.8,478.334 1583.65,478.334L1622.47,478.334C1624.03,478.334 1625.39,478.91 1626.55,480.062C1627.72,481.213 1628.3,482.941 1628.3,485.244L1640.96,751.594Z" style="fill:rgb(247,202,35);fill-rule:nonzero;"/>
            </g>
        </g>
    </g>
</svg>
